<svg xmlns="http://www.w3.org/2000/svg" viewBox="0 0 1008 672"
     width="1008" height="672" role="img"
     aria-labelledby="dd-title dd-desc">
  <title id="dd-title">Verteilungssicht — Produktion</title>
  <desc id="dd-desc">Bohnenwerk-Shop · arc42 Kapitel 7</desc>
  <defs><marker id="arrow-muted" viewBox="0 0 10 10" refX="9" refY="5" markerWidth="7" markerHeight="7" orient="auto-start-reverse"><path d="M 0 0 L 10 5 L 0 10 z" fill="#6b6b6b"/></marker><marker id="arrow-accent" viewBox="0 0 10 10" refX="9" refY="5" markerWidth="7" markerHeight="7" orient="auto-start-reverse"><path d="M 0 0 L 10 5 L 0 10 z" fill="#d9622b"/></marker><marker id="arrow-ink" viewBox="0 0 10 10" refX="9" refY="5" markerWidth="7" markerHeight="7" orient="auto-start-reverse"><path d="M 0 0 L 10 5 L 0 10 z" fill="#1a1a1a"/></marker></defs>
  <rect x="0" y="0" width="1008" height="672" fill="#f7f6f3"/>
  <text x="40" y="30" font-family="'Iowan Old Style','Palatino Linotype',Georgia,serif" font-size="19" font-style="italic" fill="#1a1a1a">Verteilungssicht — Produktion</text><text x="40" y="48" font-family="'SFMono-Regular','Cascadia Mono','Consolas',monospace" font-size="10.5" letter-spacing="0.04em" fill="#6b6b6b">BOHNENWERK-SHOP · ARC42 KAPITEL 7</text>
  <g transform="translate(40,80)">
  <g transform="translate(0,32)"><rect x="344" y="-32" width="584" height="552" rx="10" ry="10" fill="none" stroke="#d8d5cf" stroke-width="1" stroke-dasharray="2 5"/><text x="356" y="-14" font-family="'SFMono-Regular','Cascadia Mono','Consolas',monospace" font-size="10" letter-spacing="0.06em" fill="#6b6b6b">AZURE · GERMANY WEST CENTRAL</text><path d="M 192 36 L 360 36" fill="none" stroke="#6b6b6b" stroke-width="1.25" marker-end="url(#arrow-muted)"/><path d="M 456 72 L 456 144" fill="none" stroke="#6b6b6b" stroke-width="1.25" marker-end="url(#arrow-muted)"/><path d="M 456 216 L 456 288" fill="none" stroke="#6b6b6b" stroke-width="1.25" marker-end="url(#arrow-muted)"/><path d="M 456 432 L 456 360" fill="none" stroke="#6b6b6b" stroke-width="1.25" marker-end="url(#arrow-muted)"/><path d="M 552 180 L 816 180 L 816 288" fill="none" stroke="#6b6b6b" stroke-width="1.25" marker-end="url(#arrow-muted)"/><path d="M 552 468 L 816 468 L 816 360" fill="none" stroke="#6b6b6b" stroke-width="1.25" marker-end="url(#arrow-muted)"/><path d="M 360 468 L 192 468" fill="none" stroke="#6b6b6b" stroke-width="1.25" marker-end="url(#arrow-muted)"/><g data-node-id="browser"><rect x="0" y="0" width="192" height="72" rx="8" ry="8" fill="#e7e5e0" stroke="#d8d5cf" stroke-width="1"/><text x="96" y="32" text-anchor="middle" font-family="-apple-system,'Segoe UI',Inter,Roboto,sans-serif" font-size="13" font-weight="600" fill="#1a1a1a">Browser</text><text x="96" y="48" text-anchor="middle" font-family="'SFMono-Regular','Cascadia Mono','Consolas',monospace" font-size="10.5" fill="#6b6b6b">Kund:in · Team</text></g><g data-node-id="partner"><rect x="0" y="432" width="192" height="72" rx="8" ry="8" fill="#e7e5e0" stroke="#d8d5cf" stroke-width="1"/><text x="96" y="464" text-anchor="middle" font-family="-apple-system,'Segoe UI',Inter,Roboto,sans-serif" font-size="13" font-weight="600" fill="#1a1a1a">SaaS-Partner</text><text x="96" y="480" text-anchor="middle" font-family="'SFMono-Regular','Cascadia Mono','Consolas',monospace" font-size="10.5" fill="#6b6b6b">PSP, ERP, Mail, Versand</text></g><g data-node-id="frontdoor"><rect x="360" y="0" width="192" height="72" rx="8" ry="8" fill="#ffffff" stroke="#d8d5cf" stroke-width="1"/><text x="456" y="32" text-anchor="middle" font-family="-apple-system,'Segoe UI',Inter,Roboto,sans-serif" font-size="13" font-weight="600" fill="#1a1a1a">Front Door</text><text x="456" y="48" text-anchor="middle" font-family="'SFMono-Regular','Cascadia Mono','Consolas',monospace" font-size="10.5" fill="#6b6b6b">CDN · TLS · WAF</text></g><g data-node-id="web"><rect x="360" y="144" width="192" height="72" rx="8" ry="8" fill="#d9622b1a" stroke="#d9622b" stroke-width="1.5"/><text x="456" y="176" text-anchor="middle" font-family="-apple-system,'Segoe UI',Inter,Roboto,sans-serif" font-size="13" font-weight="600" fill="#1a1a1a">Web-App</text><text x="456" y="192" text-anchor="middle" font-family="'SFMono-Regular','Cascadia Mono','Consolas',monospace" font-size="10.5" fill="#6b6b6b">Container · 2 Instanzen</text></g><g data-node-id="db"><rect x="360" y="288" width="192" height="72" rx="8" ry="8" fill="#ffffff" stroke="#d8d5cf" stroke-width="1"/><text x="456" y="320" text-anchor="middle" font-family="-apple-system,'Segoe UI',Inter,Roboto,sans-serif" font-size="13" font-weight="600" fill="#1a1a1a">PostgreSQL 16</text><text x="456" y="336" text-anchor="middle" font-family="'SFMono-Regular','Cascadia Mono','Consolas',monospace" font-size="10.5" fill="#6b6b6b">Flexible Server</text></g><g data-node-id="worker"><rect x="360" y="432" width="192" height="72" rx="8" ry="8" fill="#ffffff" stroke="#d8d5cf" stroke-width="1"/><text x="456" y="464" text-anchor="middle" font-family="-apple-system,'Segoe UI',Inter,Roboto,sans-serif" font-size="13" font-weight="600" fill="#1a1a1a">Worker</text><text x="456" y="480" text-anchor="middle" font-family="'SFMono-Regular','Cascadia Mono','Consolas',monospace" font-size="10.5" fill="#6b6b6b">Container · 1 Instanz</text></g><g data-node-id="redis"><rect x="720" y="288" width="192" height="72" rx="8" ry="8" fill="#ffffff" stroke="#d8d5cf" stroke-width="1"/><text x="816" y="320" text-anchor="middle" font-family="-apple-system,'Segoe UI',Inter,Roboto,sans-serif" font-size="13" font-weight="600" fill="#1a1a1a">Redis</text><text x="816" y="336" text-anchor="middle" font-family="'SFMono-Regular','Cascadia Mono','Consolas',monospace" font-size="10.5" fill="#6b6b6b">Job-Queue · Sessions</text></g><rect x="252" y="28" width="48" height="16" fill="#f7f6f3"/><text x="276" y="40" text-anchor="middle" font-family="'SFMono-Regular','Cascadia Mono','Consolas',monospace" font-size="10.5" fill="#6b6b6b">HTTPS</text><rect x="384" y="100" width="144" height="16" fill="#f7f6f3"/><text x="456" y="112" text-anchor="middle" font-family="'SFMono-Regular','Cascadia Mono','Consolas',monospace" font-size="10.5" fill="#6b6b6b">HTTPS (Private Link)</text><rect x="424" y="244" width="64" height="16" fill="#f7f6f3"/><text x="456" y="256" text-anchor="middle" font-family="'SFMono-Regular','Cascadia Mono','Consolas',monospace" font-size="10.5" fill="#6b6b6b">TCP 5432</text><rect x="424" y="388" width="64" height="16" fill="#f7f6f3"/><text x="456" y="400" text-anchor="middle" font-family="'SFMono-Regular','Cascadia Mono','Consolas',monospace" font-size="10.5" fill="#6b6b6b">TCP 5432</text><rect x="652" y="172" width="64" height="16" fill="#f7f6f3"/><text x="684" y="184" text-anchor="middle" font-family="'SFMono-Regular','Cascadia Mono','Consolas',monospace" font-size="10.5" fill="#6b6b6b">TLS 6380</text><rect x="652" y="460" width="64" height="16" fill="#f7f6f3"/><text x="684" y="472" text-anchor="middle" font-family="'SFMono-Regular','Cascadia Mono','Consolas',monospace" font-size="10.5" fill="#6b6b6b">TLS 6380</text><rect x="252" y="460" width="48" height="16" fill="#f7f6f3"/><text x="276" y="472" text-anchor="middle" font-family="'SFMono-Regular','Cascadia Mono','Consolas',monospace" font-size="10.5" fill="#6b6b6b">HTTPS</text></g>
  </g>
</svg>